<svg xmlns="http://www.w3.org/2000/svg" width="943.789" height="668.618" viewBox="0 0 943.789 668.618">
  <g id="Group_427" data-name="Group 427" transform="translate(3.567 6.211)">
    <path id="Path_665" data-name="Path 665" d="M58.654,595.533c23.371-77.376,80.672-98.944,128.3-146.656,23.507-23.547,8.722-57.821,8.286-91.839-1-87.114,92.056-154.713,177.605-153.3,92.663,1.528,132.775,98.86,210.506,104.079,30.523.489,57.854-18.226,84.859-33.092,80.018-44.05,206.99-15.959,213.407,90.57,1.656,57.53-61.015,150.087,1.777,180.346,50.044,24.115,100.6,33,109.619,119.251,11.8,112.895-50.6,174.855-131.92,203.909l-681.061-2.327c-66.3-75.422-156.912-153.3-121.38-270.939" transform="translate(-54.23 -209.925)" fill="#ff9021"/>
    <g id="Group_544" data-name="Group 544" opacity="0.5">
      <path id="Path_670" data-name="Path 670" d="M225.445,1441.38a19.094,19.094,0,0,1,11.852-3.732c9.95,0,15.217,5.414,15.217,13.023,0,4.39-2.122,8.853-6.438,13.315-5.487,5.78-9.438,8.633-11.925,8.633a4.122,4.122,0,0,1-4.17-4.17c0-2.049,1.9-4.1,5.194-7.1a3.2,3.2,0,0,1,.585-.512c3.731-3.438,4.9-5.34,4.9-7.682,0-2.927-1.975-4.536-4.829-4.536a15.671,15.671,0,0,0-4.682.878,15.042,15.042,0,0,1-3.951.878,4.563,4.563,0,0,1-4.39-4.683C222.811,1444.16,223.689,1442.7,225.445,1441.38Zm10.023,48.8a7.267,7.267,0,0,1-7.463-7.462,7.154,7.154,0,0,1,7.463-6.877,7.012,7.012,0,0,1,6.877,6.877C242.345,1486.739,239.492,1490.178,235.468,1490.178Z" transform="translate(-117.89 -939.375)" fill="#fff"/>
      <path id="Path_671" data-name="Path 671" d="M2123.752,923.285a12.557,12.557,0,0,1,7.794-2.454c6.544,0,10.008,3.56,10.008,8.564,0,2.887-1.4,5.822-4.234,8.757-3.609,3.8-6.207,5.677-7.843,5.677a2.711,2.711,0,0,1-2.742-2.742c0-1.347,1.25-2.694,3.416-4.667a2.081,2.081,0,0,1,.385-.337c2.453-2.261,3.224-3.512,3.224-5.052a2.858,2.858,0,0,0-3.176-2.983,10.314,10.314,0,0,0-3.079.577,9.882,9.882,0,0,1-2.6.577,3,3,0,0,1-2.887-3.079A3.638,3.638,0,0,1,2123.752,923.285Zm6.592,32.091a4.779,4.779,0,0,1-4.908-4.908,4.705,4.705,0,0,1,4.908-4.522,4.611,4.611,0,0,1,4.522,4.522A4.671,4.671,0,0,1,2130.344,955.376Z" transform="translate(-1418.504 -585.448)" fill="#fff"/>
      <path id="Path_675" data-name="Path 675" d="M598.563,511.182a17.7,17.7,0,1,1,17.695-17.7A17.715,17.715,0,0,1,598.563,511.182Zm0-30.516a12.821,12.821,0,1,0,12.821,12.821A12.836,12.836,0,0,0,598.563,480.666Z" transform="translate(-343.629 -211.852)" fill="#fff"/>
      <path id="Path_676" data-name="Path 676" d="M2321.647,978.6a12.961,12.961,0,1,1,12.961-12.962A12.976,12.976,0,0,1,2321.647,978.6Zm0-22.353a9.391,9.391,0,1,0,9.391,9.391A9.4,9.4,0,0,0,2321.647,956.246Z" transform="translate(-1546.337 -607.256)" fill="#e3eaff"/>
      <path id="Path_677" data-name="Path 677" d="M165.687,1209.776a11.638,11.638,0,1,1,11.637-11.638A11.651,11.651,0,0,1,165.687,1209.776Zm0-20.07a8.432,8.432,0,1,0,8.432,8.432A8.442,8.442,0,0,0,165.687,1189.706Z" transform="translate(-70.801 -767.384)" fill="#fff"/>
      <circle id="Ellipse_112" data-name="Ellipse 112" cx="6.332" cy="6.332" r="6.332" transform="translate(660.021 249.904) rotate(-80.783)" fill="#fff"/>
      <path id="Path_678" data-name="Path 678" d="M355.415,769.191a12.449,12.449,0,1,1-12.449-12.449A12.449,12.449,0,0,1,355.415,769.191Z" transform="translate(-191.586 -423.771)" fill="#e3eaff"/>
      <path id="Path_679" data-name="Path 679" d="M2249.628,326.1a9.359,9.359,0,1,1-9.359-9.359A9.359,9.359,0,0,1,2249.628,326.1Z" transform="translate(-1493.2 -117.933)" fill="#e3eaff"/>
      <path id="Path_680" data-name="Path 680" d="M2400.893,1042.084a7.989,7.989,0,1,1-7.988-7.988A7.989,7.989,0,0,1,2400.893,1042.084Z" transform="translate(-1598.541 -663.015)" fill="#e3eaff"/>
      <path id="Path_681" data-name="Path 681" d="M2172.928,478.338a9.96,9.96,0,1,1-9.96-9.96A9.96,9.96,0,0,1,2172.928,478.338Z" transform="translate(-1480.133 -202.619)" fill="#fff"/>
      <path id="Path_682" data-name="Path 682" d="M718.973,420.639a10.1,10.1,0,1,1-10.1-10.1A10.1,10.1,0,0,1,718.973,420.639Z" transform="translate(-481.734 -203.114)" fill="#fff"/>
    </g>
    <path id="Path_683" data-name="Path 683" d="M971.73,1943.057H373.748a3.532,3.532,0,0,1-3.532-3.532h0a3.532,3.532,0,0,1,3.532-3.532H971.73a3.533,3.533,0,0,1,3.533,3.532h0A3.533,3.533,0,0,1,971.73,1943.057Z" transform="translate(-218.836 -1280.65)" fill="#201d40"/>
    <g id="Group_421" data-name="Group 421" transform="translate(119.475 285.679)">
      <g id="Group_379" data-name="Group 379" transform="translate(199.162 16.977)">
        <path id="v-2" d="M985.4,976.95h.011l9.178.034,2.079,21.679-10.714,5.657-11.426-5.593,1.846-21.743Z" transform="translate(-951.315 -926.536)" fill="#f37a50"/>
        <g id="Group_378" data-name="Group 378">
          <path id="Path_684" data-name="Path 684" d="M923.667,870.909c5.649,14.116,19.217,21.963,30.3,17.526s15.5-19.477,9.846-33.593-19.217-21.963-30.3-17.526S918.018,856.793,923.667,870.909Z" transform="translate(-914.801 -830.062)" fill="#f37a50"/>
          <path id="Path_685" data-name="Path 685" d="M1040.294,903.226a2.077,2.077,0,1,0,.519-2.891A2.077,2.077,0,0,0,1040.294,903.226Z" transform="translate(-996.1 -873.814)"/>
          <path id="Path_686" data-name="Path 686" d="M990.874,922.785a2.248,2.248,0,1,0,.562-3.129A2.248,2.248,0,0,0,990.874,922.785Z" transform="translate(-962.235 -887.023)"/>
          <path id="Path_687" data-name="Path 687" d="M1031.1,920.831c2.808,2.213,6.319,4.884,6.319,4.884a5.451,5.451,0,0,1-3.919,4.852c1.431-1.3,2.687-3.026,1.2-5.02S1031.1,920.831,1031.1,920.831Z" transform="translate(-990.056 -888.104)" fill="#de623c"/>
          <g id="Group_373" data-name="Group 373" transform="translate(23.509 28.718)">
            <path id="Path_688" data-name="Path 688" d="M976.51,913.8a1.038,1.038,0,0,1-1.009-1.277c.363-1.52,1.884-4.4,5.044-4.413a1.036,1.036,0,1,1,.01,2.072c-2.34.011-3.031,2.794-3.038,2.822A1.037,1.037,0,0,1,976.51,913.8Z" transform="translate(-975.473 -908.114)" fill="#201d40"/>
          </g>
          <g id="Group_374" data-name="Group 374" transform="translate(41.156 21.759)">
            <path id="Path_689" data-name="Path 689" d="M1032.327,889.294a.864.864,0,0,1-.744-1.3,4.26,4.26,0,0,1,2.661-1.9,4.425,4.425,0,0,1,3.6,1.14.864.864,0,0,1-1.079,1.349,2.811,2.811,0,0,0-2.205-.791,2.5,2.5,0,0,0-1.485,1.077A.863.863,0,0,1,1032.327,889.294Z" transform="translate(-1031.464 -886.033)" fill="#201d40"/>
          </g>
          <path id="Path_690" data-name="Path 690" d="M902.035,847.3c-4.778-13.6,6.861-21.424,6.861-21.424s-3.122-.28-3.5-4.665a11.537,11.537,0,0,0,7.26-.157c15.514-5.616,26.2-5.543,26.2,1.1,0,2.363,10.246.744,9.386,16.638.061-1.122-3.6-7.657-7.06-8.309s-.336,3.972-7.566,4.965c-7.295,1-12.659-.769-17.115,3.345-3.487,3.587-4.351,21.846-3.821,22.945C911.465,859.215,904.135,853.278,902.035,847.3Z" transform="translate(-900.884 -816.997)" fill="#201d40"/>
          <path id="Path_691" data-name="Path 691" d="M977.646,920.831s.66,8.283-.535,10.844c-1.243-3.322-3.911.2-6.418.53-6.057.8-16.984-1.218-18.068,7.867-7.4,2.342-14.335-13.5-14.335-13.5-.425,17.7,12.528,27.753,31.168,24.808C981.74,949.438,982.879,932.338,977.646,920.831Z" transform="translate(-926.494 -888.104)" fill="#201d40"/>
          <g id="Group_375" data-name="Group 375" transform="translate(34.28 44.795)">
            <path id="Path_692" data-name="Path 692" d="M1013.753,964.025a15.743,15.743,0,0,1-3.739-1.466.691.691,0,0,1,.651-1.219c2.868,1.532,5.438,1.969,7.64,1.3a7.211,7.211,0,0,0,3.978-3.148.691.691,0,0,1,1.224.642,8.489,8.489,0,0,1-4.773,3.82A9.327,9.327,0,0,1,1013.753,964.025Z" transform="translate(-1009.648 -959.121)" fill="#de623c"/>
          </g>
          <g id="Group_377" data-name="Group 377" transform="translate(2.814 37.599)">
            <path id="Path_693" data-name="Path 693" d="M918.619,937.273c3.117,1.751,4.483,5.238,3.05,7.789s-5.122,3.2-8.239,1.449-4.483-5.239-3.05-7.789S915.5,935.522,918.619,937.273Z" transform="translate(-909.811 -936.289)" fill="#f37a50"/>
            <g id="Group_376" data-name="Group 376" transform="translate(3.476 2.886)">
              <path id="Path_694" data-name="Path 694" d="M925.7,951.185a.777.777,0,0,0,.238-.268,3.534,3.534,0,0,0-.375-4.325,3.767,3.767,0,0,0-4.292-.787.782.782,0,1,0,.706,1.4,2.229,2.229,0,0,1,2.466.482,2,2,0,0,1,.12,2.492.782.782,0,0,0,1.137,1.011Z" transform="translate(-920.839 -945.445)" fill="#de623c"/>
            </g>
          </g>
        </g>
      </g>
      <path id="Path_695" data-name="Path 695" d="M1022.318,1882.713c1.954-5.3,6.128-5.895,6.128-5.895,8.116,11.2,28.046,4.327,27.386,19.472-30.308-.2-42.9,0-42.9,0a111.106,111.106,0,0,1,1.338-14.968l1.579.29Z" transform="translate(-778.452 -1525.806)"/>
      <path id="Path_696" data-name="Path 696" d="M878.444,1883.645c1.953-5.3,6.128-5.9,6.128-5.9,8.116,11.2,28.046,4.326,27.386,19.472-30.308-.195-42.9,0-42.9,0a111.051,111.051,0,0,1,1.338-14.967l1.579.29Z" transform="translate(-679.924 -1526.444)"/>
      <path id="Path_697" data-name="Path 697" d="M1021.719,1334.43s4.921,71.769,2.922,87.725-9.078,36.412-8.276,89.188c-9.88,2.473-24.194,0-24.194,0s-2.122-59.676,8.322-86.33c-4.247-25.891-17.876-85.192-17.876-85.192Z" transform="translate(-757.695 -1154.368)" fill="#201d40"/>
      <path id="Path_698" data-name="Path 698" d="M922.27,1340.654s-9.936,80.572-14.8,95.855-14.35,28.2-23.155,80.2c-10.154.508-19.609,0-19.609,0s1.37-65.948,17.184-80.946c.535-26.254-2.557-94.586-2.557-94.586Z" transform="translate(-676.947 -1158.631)" fill="#2c2858"/>
      <g id="v" transform="translate(197.24 86.582)">
        <path id="h-5" d="M897.064,1041.837s17.258-6.041,23.012-3.271c17.881,8.61,21.982,0,21.982,0,5.714.493,22.963,3.271,22.963,3.271,0,19.263,1.286,38.593.936,53.169-.247,12.695,2.172,47.24,2.172,47.24s-19.026,4.988-37.025,5.118c-18-.117-36.318-4.916-36.318-4.916s.962-34.989,1.761-47.993C896.287,1079.878,897.064,1061.048,897.064,1041.837Z" transform="translate(-894.786 -1037.839)" fill="#ffe450"/>
      </g>
      <g id="c" transform="translate(262.572 90.58)">
        <path id="c-2" data-name="c" d="M1137.651,1079.152c-7.123-17-28.261-27.8-30.676-28.629l-4.9,21.818a127.771,127.771,0,0,1,17.525,12.5c-1.25,6.075-1.041,12.034-4.557,19.716,0,0,3.054-4.215,6.822-1.72,3.663,2.424,10.4-2.525,10.4-2.525S1143.092,1092.134,1137.651,1079.152Z" transform="translate(-1102.072 -1050.523)" fill="#f59867"/>
      </g>
      <g id="c-3" data-name="c" transform="translate(174.211 90.58)">
        <g id="c-4" data-name="c" transform="translate(70.552 6.584)">
          <g id="c-5" data-name="c">
            <path id="c-6" data-name="c" d="M1098.947,1136.407a1.937,1.937,0,0,0,.37.075h.406a1.93,1.93,0,0,0,1.639-1.345l18.99-61.224a1.614,1.614,0,0,0,.078-.612c0-.048,0-.1,0-.146s-.017-.083-.024-.125a1.923,1.923,0,0,0-1.321-1.529,1.966,1.966,0,0,0-.361-.077,1.919,1.919,0,0,0-.412,0h-47.8l-19.156,65.058h47.629Z" transform="translate(-1049.527 -1071.413)" fill="#95a6db"/>
            <path id="c-7" data-name="c" d="M1066.98,1071.5a1.93,1.93,0,0,0-2.414,1.27l-18.87,61.071-.043.143a1.927,1.927,0,0,0,1.262,2.406l0,0a1.929,1.929,0,0,0,2.415-1.269l18.919-61.211A1.929,1.929,0,0,0,1066.98,1071.5Z" transform="translate(-1045.566 -1071.413)" fill="#768fdb"/>
          </g>
        </g>
        <path id="c-8" data-name="c" d="M1226.022,1167.279a1.975,1.975,0,0,1,.572-.248c-.021-.03-.043-.058-.063-.089-1.189-1.793-1.11-3.939.177-4.791a2.047,2.047,0,0,1,.687-.288,2.881,2.881,0,0,1,.884-3.205,2.167,2.167,0,0,1,1.234-.345,2.88,2.88,0,0,1,.943-3.357,3.377,3.377,0,0,1,3.676,5.546,2.416,2.416,0,0,1-1.066.383c.857,1.67.684,3.5-.48,4.268a2.068,2.068,0,0,1-.687.288,2.88,2.88,0,0,1-.885,3.205,2.142,2.142,0,0,1-1.139.345,2.463,2.463,0,0,1-.749,2.971,2.852,2.852,0,0,1-3.1-4.683Z" transform="translate(-1097.94 -1121.766)" fill="#f37a50"/>
        <path id="Path_699" data-name="Path 699" d="M1041.63,1163.411l4.358-2.524a8.234,8.234,0,0,1,8.2-6.329l-1.956,6.329s3.444,2.674,11.614-1.9c7.986-1.795,4.575,4.028,7.221,4.446,3.905.617-2.847,8.291-10.82,9.465-10.318,1.52-11.542-.592-11.542-.592l-5.838,2.04Z" transform="translate(-972.319 -1121.768)" fill="#f37a50"/>
        <path id="c-9" data-name="c" d="M850.708,1098.77c14.565-1.017,39.411-8.211,39.411-8.211,3.976,6.1,2.876,14.2,2.876,14.2-22.619,19.83-56.661,26.241-67.106,21.468-9.536-4.357-2.8-62.405,21.138-75.7h0C855.236,1064.412,850.708,1098.77,850.708,1098.77Z" transform="translate(-821.721 -1050.523)" fill="#f59867"/>
      </g>
      <g id="Group_388" data-name="Group 388" transform="translate(357.235)">
        <path id="Path_700" data-name="Path 700" d="M1598.942,1878.435c-8.116,10.825-28.047,4.183-27.386,18.824,30.308-.188,42.9,0,42.9,0a103.969,103.969,0,0,0-1.338-14.47Z" transform="translate(-1518.235 -1526.913)"/>
        <path id="Path_701" data-name="Path 701" d="M1742.815,1879.335c-8.115,10.826-28.046,4.182-27.387,18.824,30.308-.187,42.9,0,42.9,0a103.9,103.9,0,0,0-1.338-14.469Z" transform="translate(-1616.762 -1527.529)"/>
        <path id="Path_702" data-name="Path 702" d="M1606.579,1354.084s-4.921,69.382-2.922,84.807,9.078,35.2,8.276,86.222c9.88,2.391,24.194,0,24.194,0s2.122-57.691-8.322-83.459c4.247-25.03,17.875-82.359,17.875-82.359Z" transform="translate(-1539.902 -1167.828)" fill="#201d40"/>
        <path id="Path_703" data-name="Path 703" d="M1673.3,1360.1s9.936,77.893,14.8,92.667,14.349,27.267,23.156,77.528c10.153.491,22.252-2.008,22.252-2.008s-4.015-61.747-19.828-76.245c-.535-25.383,2.557-91.442,2.557-91.442Z" transform="translate(-1587.923 -1171.948)" fill="#2c2858"/>
        <g id="Group_385" data-name="Group 385" transform="translate(81.391 17.897)">
          <g id="Group_384" data-name="Group 384">
            <g id="Group_383" data-name="Group 383">
              <path id="Path_704" data-name="Path 704" d="M1713.43,883.622c-5.386,13.459-18.321,20.939-28.89,16.709s-14.773-18.569-9.387-32.027,18.32-20.939,28.891-16.709S1718.816,870.164,1713.43,883.622Z" transform="translate(-1668.976 -840.8)" fill="#f37a50"/>
              <path id="Path_705" data-name="Path 705" d="M1687,914.432a1.98,1.98,0,1,1-.495-2.756A1.98,1.98,0,0,1,1687,914.432Z" transform="translate(-1676.226 -882.513)"/>
              <path id="Path_706" data-name="Path 706" d="M1733.4,933.079a2.143,2.143,0,1,1-.535-2.983A2.143,2.143,0,0,1,1733.4,933.079Z" transform="translate(-1707.802 -895.106)"/>
              <path id="Path_707" data-name="Path 707" d="M1691.284,931.216c-2.677,2.111-6.024,4.656-6.024,4.656A5.2,5.2,0,0,0,1689,940.5c-1.365-1.238-2.562-2.884-1.142-4.786S1691.284,931.216,1691.284,931.216Z" transform="translate(-1677.504 -896.136)" fill="#de623c"/>
              <g id="Group_380" data-name="Group 380" transform="translate(24.665 31.258)">
                <path id="Path_708" data-name="Path 708" d="M1743.75,924.517a.989.989,0,0,1-.96-.759c-.026-.105-.69-2.68-2.9-2.69a.988.988,0,0,1,.009-1.976c3.013.015,4.463,2.758,4.809,4.208a.989.989,0,0,1-.962,1.218Z" transform="translate(-1738.91 -919.092)"/>
              </g>
              <g id="Group_381" data-name="Group 381" transform="translate(7.279 24.623)">
                <path id="Path_709" data-name="Path 709" d="M1689.315,901.15a.822.822,0,0,1-.708-.4,2.4,2.4,0,0,0-1.431-1.033,2.692,2.692,0,0,0-2.091.756.823.823,0,0,1-1.029-1.286,4.218,4.218,0,0,1,3.431-1.087,4.06,4.06,0,0,1,2.537,1.813.824.824,0,0,1-.709,1.24Z" transform="translate(-1683.748 -898.041)"/>
              </g>
              <path id="Path_710" data-name="Path 710" d="M1701.349,864.142c-3.9-12.522,1.031-19.176,1.031-19.176-3.344-.67-4.643.487-4.643.487a7.427,7.427,0,0,1-.412-6.429c-6.912-2.694-10.353,1.782-16.589,3.29-8.539,2.065-19.087-1.341-20.075-11.766a1.78,1.78,0,0,1,2.776-1.643,7.845,7.845,0,0,0,4.651,1.36,8.383,8.383,0,0,1-1.881-4.81,1.779,1.779,0,0,1,2.939-1.385c1.775,1.478,5.069,2.874,10.941,1.774,3.909-.732,12.856-6.992,18.429-5.77,4.556,1,8.171,4.877,9.727,10.427a14.317,14.317,0,0,1,12.322,13.486c1.1,12.109-12.923,21.4-12.923,21.4Z" transform="translate(-1660.653 -819.916)"/>
              <path id="Path_711" data-name="Path 711" d="M1777.477,951.54c-2.966,1.681-4.255,5.01-2.88,7.438s4.894,3.032,7.86,1.351,4.255-5.01,2.88-7.437S1780.442,949.86,1777.477,951.54Z" transform="translate(-1738.307 -909.404)" fill="#f37a50"/>
              <g id="Group_382" data-name="Group 382" transform="translate(38.884 43.938)">
                <path id="Path_712" data-name="Path 712" d="M1784.787,964.8a.738.738,0,0,1-.228-.255,3.37,3.37,0,0,1,.342-4.125,3.591,3.591,0,0,1,4.089-.765.745.745,0,0,1-.668,1.332,2.126,2.126,0,0,0-2.349.468,1.908,1.908,0,0,0-.106,2.376.746.746,0,0,1-1.08.969Z" transform="translate(-1784.022 -959.322)" fill="#de623c"/>
              </g>
              <path id="Path_713" data-name="Path 713" d="M1687,972.222a.631.631,0,0,1,.666-.95,44.748,44.748,0,0,0,11.837,1.057.631.631,0,0,1,.487,1.053,7.874,7.874,0,0,1-12.99-1.159Z" transform="translate(-1678.628 -923.558)" fill="#fff"/>
            </g>
          </g>
        </g>
        <path id="Path_714" data-name="Path 714" d="M1523,1027.924s.5-1.371-43.111-1.019l-11.693,13.821c12.1,9.7,52.634,11.429,52.634,11.429Z" transform="translate(-1447.462 -943.73)" fill="#201d40"/>
        <path id="Path_715" data-name="Path 715" d="M1692.357,1023.905l13.757-1.284,13.309,3.711-15,15.432Z" transform="translate(-1600.973 -940.836)" fill="#95a6db"/>
        <path id="Path_716" data-name="Path 716" d="M1707.488,1009.6c5.606,4.6,6.753,7.784,18.662,1.632l1.786-18.311-19.387-1.528Z" transform="translate(-1611.335 -919.453)" fill="#f37a50"/>
        <path id="Path_717" data-name="Path 717" d="M1671.419,1036.493h0l-4.077-1.613.546-5.758-11.308,9.082-3.194.508-3.052-1.068-9.512-10.949-.487,5.763-3.6.722h0l-12.972,2.1-1.544,72-5.118,24.5c17.214,5.726,36.463,7.154,55.386,4.546l-.636-24.591,13.442-70.368Z" transform="translate(-1549.437 -943.625)" fill="#95a6db"/>
        <path id="Path_718" data-name="Path 718" d="M1706.673,1087.9l-8.126,54.974,4.5,6.251,5.867-4.507,2-56.263Z" transform="translate(-1605.212 -985.54)" fill="#2c2858"/>
        <path id="Path_719" data-name="Path 719" d="M1722.795,1065.606l2.97-.783,3.026,1.32-1.28,6.518-4.26-.382Z" transform="translate(-1621.817 -969.736)" fill="#2c2858"/>
        <g id="Group_386" data-name="Group 386" transform="translate(57.927 83.53)">
          <path id="Path_720" data-name="Path 720" d="M1619.472,1028.156l-2.038,66.407-8.79,42.761s-13.9-1.4-22.441-9.528l10.946-32.192,3.742-67.271Z" transform="translate(-1586.204 -1028.156)" fill="#2c2858"/>
          <path id="Path_721" data-name="Path 721" d="M1665.371,1028.156l-2.026,65.516-10.118-50.21Z" transform="translate(-1632.102 -1028.156)" fill="#494c7f"/>
        </g>
        <g id="Group_387" data-name="Group 387" transform="translate(101.439 87.778)">
          <path id="Path_722" data-name="Path 722" d="M1742.31,1041.635l-18.05,107.658s23.953,2.943,33.8-3.535l-5.345-35.39,6.533-60.083Z" transform="translate(-1724.26 -1041.635)" fill="#2c2858"/>
          <path id="Path_723" data-name="Path 723" d="M1758.609,1041.635l-10.549,63.1,18.89-47.608Z" transform="translate(-1740.558 -1041.635)" fill="#494c7f"/>
        </g>
        <path id="Path_724" data-name="Path 724" d="M1402.631,787.6c.96,3.359,1.247,6.982,5.507,8.792,0,0-.63,11.147-.16,20.292,0,0,10.31-11.626,10.309-11.636-.591-3.687-1.069-10.656-.5-14.613.147-1.027.349-2.05.509-3.08.443-2.5,1.179-5.057-.344-8.074-5.884-11.656-3.9-15.492-4.714-16.06-1.317-.58-4.414,1.765-2.663,7.492,1.694,5.542,1.276,8.263,1.276,8.263s-4.447-.84-6.025.716C1405.109,780.4,1401.508,783.671,1402.631,787.6Z" transform="translate(-1402.416 -763.134)" fill="#f37a50"/>
        <path id="Path_725" data-name="Path 725" d="M1410.689,884.3c6.009-2,9.172-2.9,13.845-2.9,11.047,32.921,18.922,45.325,15.638,54.777-2.738,7.88-11.4,7.25-15.638,1.345C1418.945,929.725,1414,900.135,1410.689,884.3Z" transform="translate(-1408.081 -844.118)" fill="#201d40"/>
        <path id="Path_726" data-name="Path 726" d="M1821.082,1069.08l34.8,54.451,41.337,23.34-12.741,12.685-41.471-18.178-28.462-40.158Z" transform="translate(-1684.652 -972.651)" fill="#201d40"/>
        <path id="Path_727" data-name="Path 727" d="M1698.771,1038.712s-5.119,5.17-9.827,6.493l-5.567-14.72,2.83-3.79Z" transform="translate(-1594.823 -943.625)" fill="#fff"/>
        <path id="Path_728" data-name="Path 728" d="M1732.219,1043.986a24.673,24.673,0,0,0,8.516,8.137l8.1-13.451-2.114-4.276Z" transform="translate(-1628.271 -948.899)" fill="#fff"/>
      </g>
      <g id="с" transform="translate(182.243 232.694)">
        <path id="с-2" data-name="с" d="M1164.027,1518.825H860.136c-7.142,0-12.932-3.9-12.932-8.7h0c0-4.806,5.79-8.7,12.932-8.7h303.891c7.142,0,12.932,3.9,12.932,8.7h0C1176.959,1514.928,1171.169,1518.825,1164.027,1518.825Z" transform="translate(-847.204 -1501.42)" fill="#95a6db"/>
        <g id="Group_389" data-name="Group 389" transform="translate(122.72 10.729)">
          <path id="Path_729" data-name="Path 729" d="M1240.676,1664.763h0a4.1,4.1,0,0,1-3.434-6.342l80.238-122.961,6.869,4.482L1244.11,1662.9A4.1,4.1,0,0,1,1240.676,1664.763Z" transform="translate(-1236.568 -1535.461)" fill="#95a6db"/>
        </g>
        <g id="Group_390" data-name="Group 390" transform="translate(119.255 10.729)">
          <path id="Path_730" data-name="Path 730" d="M1309.246,1664.763h0a4.1,4.1,0,0,0,3.434-6.342l-80.238-122.961-6.869,4.482,80.238,122.961A4.1,4.1,0,0,0,1309.246,1664.763Z" transform="translate(-1225.574 -1535.461)" fill="#95a6db"/>
        </g>
      </g>
      <g id="с-3" data-name="с" transform="translate(496.557 184.575)">
        <path id="с-4" data-name="с" d="M1882.26,1779.768h0a3.928,3.928,0,0,1-3.928-3.928v-69.6h7.856v69.6A3.928,3.928,0,0,1,1882.26,1779.768Z" transform="translate(-1867.654 -1593.566)" fill="#768fdb"/>
        <path id="с-5" data-name="с" d="M1969.715,1779.768h0a3.928,3.928,0,0,1-3.928-3.928v-69.6h7.857v69.6A3.928,3.928,0,0,1,1969.715,1779.768Z" transform="translate(-1927.544 -1593.566)" fill="#768fdb"/>
        <path id="с-6" data-name="с" d="M2084.472,1779.768h0a3.929,3.929,0,0,1-3.928-3.928v-69.6h7.856v69.6A3.928,3.928,0,0,1,2084.472,1779.768Z" transform="translate(-2006.132 -1593.566)" fill="#768fdb"/>
        <path id="с-7" data-name="с" d="M2171.928,1779.768h0a3.929,3.929,0,0,1-3.928-3.928v-69.6h7.857v69.6A3.928,3.928,0,0,1,2171.928,1779.768Z" transform="translate(-2066.024 -1593.566)" fill="#768fdb"/>
        <path id="с-8" data-name="с" d="M1906.893,1358.131v82.825a1.706,1.706,0,0,1-1.706,1.707h-51.353a9.381,9.381,0,0,0-9.381,9.381h0a9.381,9.381,0,0,0,9.381,9.381h62.44a9.381,9.381,0,0,0,9.381-9.381v-93.912a9.381,9.381,0,0,0-9.381-9.381h0A9.381,9.381,0,0,0,1906.893,1358.131Z" transform="translate(-1844.452 -1348.75)" fill="#95a6db"/>
        <rect id="с-9" data-name="с" width="40.602" height="95.433" transform="translate(71.822)" fill="#95a6db"/>
        <path id="с-10" data-name="с" d="M2035.712,1358.131v82.825a1.707,1.707,0,0,1-1.706,1.707h-51.353a9.381,9.381,0,0,0-9.381,9.381h0a9.381,9.381,0,0,0,9.381,9.381h62.441a9.381,9.381,0,0,0,9.381-9.381v-93.912a9.381,9.381,0,0,0-9.381-9.381h0A9.381,9.381,0,0,0,2035.712,1358.131Z" transform="translate(-1932.67 -1348.75)" fill="#768fdb"/>
      </g>
      <g id="с-11" data-name="с" transform="translate(72.034 184.575)">
        <path id="с-12" data-name="с" d="M829.116,1779.768h0a3.928,3.928,0,0,0,3.929-3.928v-69.6h-7.857v69.6A3.928,3.928,0,0,0,829.116,1779.768Z" transform="translate(-721.918 -1593.566)" fill="#768fdb"/>
        <path id="с-13" data-name="с" d="M741.659,1779.768h0a3.928,3.928,0,0,0,3.928-3.928v-69.6h-7.857v69.6A3.928,3.928,0,0,0,741.659,1779.768Z" transform="translate(-662.026 -1593.566)" fill="#768fdb"/>
        <path id="с-14" data-name="с" d="M626.9,1779.768h0a3.928,3.928,0,0,0,3.928-3.928v-69.6h-7.857v69.6A3.928,3.928,0,0,0,626.9,1779.768Z" transform="translate(-583.439 -1593.566)" fill="#768fdb"/>
        <path id="с-15" data-name="с" d="M539.447,1779.768h0a3.928,3.928,0,0,0,3.928-3.928v-69.6h-7.856v69.6A3.928,3.928,0,0,0,539.447,1779.768Z" transform="translate(-523.547 -1593.566)" fill="#768fdb"/>
        <path id="с-16" data-name="с" d="M645.117,1358.131v82.825a1.706,1.706,0,0,0,1.706,1.707h51.353a9.381,9.381,0,0,1,9.381,9.381h0a9.381,9.381,0,0,1-9.381,9.381H635.736a9.381,9.381,0,0,1-9.381-9.381v-93.912a9.381,9.381,0,0,1,9.381-9.381h0A9.381,9.381,0,0,1,645.117,1358.131Z" transform="translate(-585.754 -1348.75)" fill="#95a6db"/>
        <rect id="с-17" data-name="с" width="40.602" height="95.433" transform="translate(49.983 95.433) rotate(180)" fill="#95a6db"/>
        <path id="с-18" data-name="с" d="M516.3,1358.131v82.825a1.706,1.706,0,0,0,1.706,1.707h51.353a9.381,9.381,0,0,1,9.381,9.381h0a9.381,9.381,0,0,1-9.381,9.381H506.917a9.381,9.381,0,0,1-9.381-9.381v-93.912a9.381,9.381,0,0,1,9.381-9.381h0A9.381,9.381,0,0,1,516.3,1358.131Z" transform="translate(-497.536 -1348.75)" fill="#768fdb"/>
      </g>
      <g id="Group_395" data-name="Group 395" transform="translate(380.166 93.098)">
        <path id="Path_731" data-name="Path 731" d="M1941.315,1127.718c-8.665-3.125-22.048-9.96-13.154-22.448s8.667-7.037,5.466-22.206,7.585-27.1,17.867-24.082,12.906,11.34,25.51,9.234,23.08,9.682,18.336,19.9-6.771,15.144-2.335,20.8,24.425,11.754,16.088,25.31-12.158,12.724-9.262,19.672-3.783,14.86-15.372,13.78-22.078-5.462-26.328-18.4S1941.315,1127.718,1941.315,1127.718Z" transform="translate(-1783.381 -1058.512)" fill="#2c2858"/>
        <path id="Path_732" data-name="Path 732" d="M1851.219,1874.984l-6.846,2.045-5.156-5.271c.246-.366.009-3.9-.787-7.66l12.789-2.123C1851.729,1865.873,1851.219,1871.048,1851.219,1874.984Z" transform="translate(-1723.938 -1608.739)" fill="#f37a50"/>
        <path id="Path_733" data-name="Path 733" d="M1796.73,1895.509c-1.628-4.274-5.108-4.749-5.108-4.749-6.763,9.021-23.373,3.486-22.823,15.688,25.259-.157,35.756,0,35.756,0a86.559,86.559,0,0,0-1.116-12.058l-1.316.234Z" transform="translate(-1676.244 -1628.451)" fill="#e62552"/>
        <path id="Path_734" data-name="Path 734" d="M1710.141,1878.1l-7.128.489-4.1-4.367c.321-.3,1.1-5.708,1.146-9.554l12.016.534A110.9,110.9,0,0,1,1710.141,1878.1Z" transform="translate(-1628.395 -1610.582)" fill="#f37a50"/>
        <path id="Path_735" data-name="Path 735" d="M1653.66,1895.509c-1.628-4.274-5.107-4.749-5.107-4.749-6.764,9.021-23.373,3.486-22.823,15.688,25.258-.157,35.756,0,35.756,0a86.523,86.523,0,0,0-1.115-12.058l-1.316.234Z" transform="translate(-1578.267 -1628.451)" fill="#e62552"/>
        <path id="Path_736" data-name="Path 736" d="M1782.233,1527.919c-19.461,2.619-74.281,22.935-77.336,26.61-6.312,7.592-2.985,48.9-5.982,82.988l15.934.941c7.633-27.76,7.024-39.74,10.476-71.58,0,0,62.63,4.691,85.262-10.585C1833.92,1540.544,1797.969,1524.187,1782.233,1527.919Z" transform="translate(-1628.395 -1379.603)" fill="#fff"/>
        <path id="Path_737" data-name="Path 737" d="M1786.4,1400.693c4.6.785,6.37,4.474,7.479,11.27-17.52,10.321-43.549,11.056-43.549,11.056l-8.3-4.1S1762.907,1411.4,1786.4,1400.693Z" transform="translate(-1657.925 -1292.844)" fill="#de623c"/>
        <path id="Path_738" data-name="Path 738" d="M1930.958,1293.231c-7.668,11.142-37.041,35.1-41.9,35.858l-5.89-16.486s28.679-31.04,33.9-36.526C1926.082,1266.556,1943.511,1275.064,1930.958,1293.231Z" transform="translate(-1754.573 -1204.806)" fill="#de623c"/>
        <path id="Path_739" data-name="Path 739" d="M1932.314,1288.717c6.149-6.625,14.157-21.579,24.577-20.516s11.173,12.121,8.032,18.076-13.987,20.628-13.987,20.628Z" transform="translate(-1788.232 -1202.074)" fill="#f59867"/>
        <path id="Path_740" data-name="Path 740" d="M1819.392,1422.34c4.416,1.521,6.938,15.434,5.7,16.5-18.936,7.5-58.335-.611-58.335-.611l-2.092-7.135S1794.5,1429.266,1819.392,1422.34Z" transform="translate(-1673.422 -1307.668)" fill="#f37a50"/>
        <path id="Path_741" data-name="Path 741" d="M2005.176,1354.411c-4.331-22.34-6.2-30.258-8-40.772-4.445-25.984,8.625-44.247-13.782-56.7l-16.333,2.633c-13.206,13.893-21.335,26.5-22.032,35.215-.958,11.237,10.192,17.335,10.192,17.335l-4.486,30.594s-1.056,2.5,17.36,5.977S2005.176,1354.411,2005.176,1354.411Z" transform="translate(-1796.902 -1194.398)" fill="#ffe450"/>
        <path id="Path_742" data-name="Path 742" d="M1987.184,1302.757c-7.668,11.271-40.431,39.914-45.355,40.168l-3.524-17.091s29.764-34.88,34.985-40.43C1982.308,1275.773,1999.737,1284.38,1987.184,1302.757Z" transform="translate(-1792.334 -1211.162)" fill="#f37a50"/>
        <path id="Path_743" data-name="Path 743" d="M1994.007,1300.108c5.721-8.325,17.263-23.685,27.683-22.621s11.174,12.121,8.032,18.076-13.987,20.628-13.987,20.628Z" transform="translate(-1830.48 -1208.434)" fill="#f69e70"/>
        <path id="Path_744" data-name="Path 744" d="M1711.662,1446.085c-6.024-1.481-19.121-5.881-24.394,7.912,1.323,2.532,6.171-3.718,8.254-4.3,3.306-.919,6.142.818,8.645,3.21,3.588,3.429,9.587.311,9.587.311Z" transform="translate(-1620.419 -1322.662)" fill="#f37a50"/>
        <g id="Group_391" data-name="Group 391" transform="translate(0 81.459)">
          <path id="Path_745" data-name="Path 745" d="M1626.846,1484.449h-56.585v-7.6h64.183A7.6,7.6,0,0,1,1626.846,1484.449Z" transform="translate(-1540.291 -1426.458)" fill="#ff4f78"/>
          <path id="Path_746" data-name="Path 746" d="M1476.046,1327.226l29.1,47.73,6.725-3.536-32.632-54.455h0A7.6,7.6,0,0,0,1476.046,1327.226Z" transform="translate(-1475.172 -1316.965)" fill="#ff4f78"/>
        </g>
        <path id="Path_747" data-name="Path 747" d="M2017.96,1134.892c-2.752,11.491-12.3,19.055-21.324,16.894s-14.111-13.229-11.36-24.72,12.3-19.056,21.324-16.894S2020.711,1123.4,2017.96,1134.892Z" transform="translate(-1823.989 -1093.637)" fill="#f37a50"/>
        <path id="Path_748" data-name="Path 748" d="M2039.321,1208.607l-15,9.3s-1.331,6.63-1.995,8.78c-1.371,4.438,3.881,6.377,8.321,3.615a12.991,12.991,0,0,0,5.57-6.459Z" transform="translate(-1849.722 -1161.3)" fill="#f37a50"/>
        <path id="Path_749" data-name="Path 749" d="M1983.623,1116.523c4.262.367,13.5-.373,16.864-4.366,2.4,8.108,12.606,15.826,21.048,19.444.339-8.319.276-23.622-14.636-29.98C1995.184,1096.626,1983.623,1116.523,1983.623,1116.523Z" transform="translate(-1823.369 -1087.483)" fill="#2c2858"/>
        <path id="Path_750" data-name="Path 750" d="M1993.672,1169.08a1.614,1.614,0,1,1-.725-2.164A1.614,1.614,0,0,1,1993.672,1169.08Z" transform="translate(-1828.156 -1132.633)"/>
        <path id="Path_751" data-name="Path 751" d="M2033.344,1178.584a1.747,1.747,0,1,1-.785-2.343A1.747,1.747,0,0,1,2033.344,1178.584Z" transform="translate(-1855.151 -1139.01)"/>
        <g id="Group_392" data-name="Group 392" transform="translate(176.059 34.37)">
          <path id="Path_752" data-name="Path 752" d="M2037.835,1171.319a.606.606,0,0,1-.28-.288,4.628,4.628,0,0,0-3.265-2.26.607.607,0,0,1,.172-1.2,5.779,5.779,0,0,1,4.2,2.952.607.607,0,0,1-.822.8Z" transform="translate(-2033.769 -1167.561)" fill="#2c2858"/>
        </g>
        <g id="Group_393" data-name="Group 393" transform="translate(161.66 31.909)">
          <path id="Path_753" data-name="Path 753" d="M1988.419,1161.952a.6.6,0,0,1-.161-.117.607.607,0,0,1,0-.859,4.264,4.264,0,0,1,4.234-1.039.607.607,0,0,1-.393,1.149,3.048,3.048,0,0,0-2.986.754A.607.607,0,0,1,1988.419,1161.952Z" transform="translate(-1988.083 -1159.754)" fill="#2c2858"/>
        </g>
        <path id="Path_754" data-name="Path 754" d="M1997.526,1185.094a16.122,16.122,0,0,1-2.508,2.383.64.64,0,0,0-.211.852c.683,1.211,2.677,2.208,3.9,2.728a.171.171,0,0,0,.179-.286,8.286,8.286,0,0,1-1.987-2.317.762.762,0,0,1,0-.691c.253-.5.757-1.52,1.1-2.364A.287.287,0,0,0,1997.526,1185.094Z" transform="translate(-1830.972 -1145.137)" fill="#de623c"/>
        <path id="Path_755" data-name="Path 755" d="M2072.082,1186.955c-2.193,1.706-2.839,4.544-1.443,6.339s4.307,1.867,6.5.16,2.839-4.544,1.443-6.339S2074.275,1185.249,2072.082,1186.955Z" transform="translate(-1882.455 -1145.627)" fill="#f37a50"/>
        <g id="Group_394" data-name="Group 394" transform="translate(189.969 42.37)">
          <path id="Path_756" data-name="Path 756" d="M2078.809,1197.719a.611.611,0,0,1-.214-.179,2.746,2.746,0,0,1-.212-3.367,2.929,2.929,0,0,1,3.208-1.1.608.608,0,0,1-.381,1.154,1.733,1.733,0,0,0-1.839.656,1.555,1.555,0,0,0,.2,1.929.608.608,0,0,1-.757.909Z" transform="translate(-2077.902 -1192.943)" fill="#de623c"/>
        </g>
        <path id="Path_757" data-name="Path 757" d="M1860.65,1537.426c-19.46,2.62-74.364,20.414-77.419,24.089-6.311,7.593,7.739,40.1,12.234,81.958h18.785c-.2-29.822,2.185-57.257-6.991-66.979,0,0,52.625-3.512,78.859-3.512C1899.49,1572.982,1906.891,1527.792,1860.65,1537.426Z" transform="translate(-1685.038 -1385.559)" fill="#fff"/>
        <path id="Path_758" data-name="Path 758" d="M2000.791,1214.248a.494.494,0,0,1,.454-.788,35.119,35.119,0,0,0,9.318.01.5.5,0,0,1,.453.789,6.174,6.174,0,0,1-10.226-.01Z" transform="translate(-1835.058 -1164.621)" fill="#fff"/>
      </g>
      <g id="Group_420" data-name="Group 420" transform="translate(0 101.726)">
        <g id="Group_396" data-name="Group 396" transform="translate(125.981 67.535)">
          <path id="Path_759" data-name="Path 759" d="M809.8,1429.321c-3.716,2.474-2.687,15.949-1.284,16.634,19.323,2.361,51.961-13.648,51.961-13.648l1.278-7.162S834.5,1429.712,809.8,1429.321Z" transform="translate(-763.574 -1385.754)" fill="#f37a50"/>
          <path id="Path_760" data-name="Path 760" d="M672.468,1320.364c6.908,11.047,37.144,39.611,41.836,40.035l4-16.195s-27.142-34.409-31.923-39.9C678.119,1294.772,661.156,1302.35,672.468,1320.364Z" transform="translate(-668.698 -1300.163)" fill="#f37a50"/>
        </g>
        <path id="Path_761" data-name="Path 761" d="M587.8,1114.6c.831-11.31-2.439-21.3-11.457-26.391-9.141-5.157-20.591-.1-20.591-.1h0s-9.693-3.448-18.476,6.228-2.139,18.191-5.733,25.247c-2.128,4.179-12.948,5.041-10.153,18.653.807,3.926,5.528,6.568,9.527,6.831,7.026.461,13.569-2.255,16.417.461,9.385,8.95,30.184,5.713,33.094-2.474.9-2.539,19.611,2.374,17.745-14.917C597.222,1119.376,587.054,1124.7,587.8,1114.6Z" transform="translate(-441.52 -1085.889)" fill="#2c2858"/>
        <g id="Group_399" data-name="Group 399" transform="translate(108.709 62.528)">
          <g id="Group_398" data-name="Group 398">
            <g id="Group_397" data-name="Group 397">
              <path id="Path_762" data-name="Path 762" d="M634.32,1287.021l-14.854-2.742-5.57,7.411,11.838,24.27,17.411-14.778Z" transform="translate(-613.896 -1284.278)" fill="#f37a50"/>
            </g>
          </g>
        </g>
        <g id="Group_402" data-name="Group 402" transform="translate(90.832 62.51)">
          <g id="Group_401" data-name="Group 401">
            <g id="Group_400" data-name="Group 400">
              <path id="Path_763" data-name="Path 763" d="M614.733,1345.5c-.254-4.618,7.209-23.581,3.281-33.127-2.861-7.678-7.641-20.568-13.494-22.718-2.762-1.015-5.6-1.722-9.041-2.673,0,0,1.942,9.676-2.1,10-7.787.624-12.751-12.742-12.751-12.742-4.2-.4-23.455,5.926-23.446,7.508.046,12.385,10.109,30.456,13.4,43.847,1.295,14.462-3.751,31.769-3.769,33.415,0,0,30.979,8.709,49.343-1.4C616.534,1366.2,615.083,1351.875,614.733,1345.5Z" transform="translate(-557.178 -1284.22)" fill="#fff"/>
            </g>
          </g>
        </g>
        <path id="Path_764" data-name="Path 764" d="M583.6,1506.088s-6.839,17.254-8.507,28.115,7.744,17.831,7.744,17.831h78.271s8.379-13.589,5.966-22.973-7.965-10.876-7.965-10.876Z" transform="translate(-478.481 -1373.649)" fill="#fff"/>
        <path id="Path_765" data-name="Path 765" d="M740.163,1542.688c-9.993-1.41-39,9.856-51.362,34.329h34.6Z" transform="translate(-556.484 -1398.633)" fill="#de623c"/>
        <g id="Group_403" data-name="Group 403" transform="translate(172.72 143.644)">
          <path id="Path_766" data-name="Path 766" d="M816.991,1551.059a27.727,27.727,0,0,0,3.5-4.974,8.63,8.63,0,0,1,13.916-1.63c14.425,15.9,45.177,52.161,52.033,56.672,1.937,1.275,13.24,7.783,23.984,6.5,0,0,5.3,2.019,1.77,6.231-1.818,2.167-29.124,4.407-29.124,4.407l-2.128-8.017c-15.894-11.764-35.681-10.918-52.459-32.425C819.241,1565.976,816.991,1551.059,816.991,1551.059Z" transform="translate(-816.991 -1541.641)" fill="#de623c"/>
          <path id="Path_767" data-name="Path 767" d="M1024.627,1757.436l10.988,7.132,1.51-1.8-8.912-8.312c5.063-3.995,16.789-.661,16.789-.661,3.841-2.48,11.328-10.527,12.1-14.839-2.46-3.065-10.65,3.239-10.65,3.239.3,1.366-2.287,6.095-4.345,6.9-8.947,1.93-17.863-.612-25.138-4.306C1016.969,1744.794,1010.889,1754.006,1024.627,1757.436Z" transform="translate(-953.022 -1676.191)" fill="#e62552"/>
        </g>
        <g id="Group_404" data-name="Group 404" transform="translate(166.605 155.058)">
          <path id="Path_768" data-name="Path 768" d="M803.544,1578.019a5.173,5.173,0,0,0-3.783,4.267c-.783,5.551-4.824,16.793.643,28.565,13.424,28.9,21.349,47.943,22.757,55.4-3.506,6.567,10.475,24.5,10.683,25.679l10.063-3.149s-5.774-8.589-7.853-11.952c-4.951-8.009-5.76-17.837-6.565-25.455-3.435-32.522,2.471-53.057-21.061-72.135A5.494,5.494,0,0,0,803.544,1578.019Z" transform="translate(-797.589 -1577.855)" fill="#f37a50"/>
          <path id="Path_769" data-name="Path 769" d="M859.271,1872.079l.992,13.062,2.347.109,1.2-12.127c6.246,1.6,10.706,12.949,10.706,12.949,4.3,1.55,15.24,2.624,19.136.624.946-3.814-9.034-6.5-9.034-6.5-.9,1.067-6.234,1.878-8.124.731-6.96-5.943-10.742-14.575-12.216-22.6C864.283,1858.323,853.668,1859.075,859.271,1872.079Z" transform="translate(-838.711 -1769.925)" fill="#e62552"/>
        </g>
        <g id="Group_407" data-name="Group 407" transform="translate(113.318 51.333)">
          <g id="Group_406" data-name="Group 406">
            <g id="Group_405" data-name="Group 405">
              <path id="Path_770" data-name="Path 770" d="M640.581,1250.565l-12.061-1.807.961,11.2s2.309,5.072,4.987,5.415l9.867-2.673Z" transform="translate(-628.52 -1248.758)" fill="#f37a50"/>
            </g>
          </g>
        </g>
        <g id="Group_411" data-name="Group 411" transform="translate(98.884 8.562)">
          <path id="Path_771" data-name="Path 771" d="M591.276,1141.444c3.114,13,13.917,21.563,24.131,19.118s15.968-14.97,12.855-27.974-13.917-21.563-24.13-19.118S588.163,1128.44,591.276,1141.444Z" transform="translate(-588.002 -1113.054)" fill="#f37a50"/>
          <path id="Path_772" data-name="Path 772" d="M694.857,1180.133a1.826,1.826,0,1,0,.82-2.449A1.827,1.827,0,0,0,694.857,1180.133Z" transform="translate(-659.384 -1157.182)"/>
          <path id="Path_773" data-name="Path 773" d="M649.309,1190.887a1.977,1.977,0,1,0,.889-2.651A1.978,1.978,0,0,0,649.309,1190.887Z" transform="translate(-628.181 -1164.398)"/>
          <g id="Group_408" data-name="Group 408" transform="translate(17.948 20.6)">
            <path id="Path_774" data-name="Path 774" d="M640.664,1182.665a.683.683,0,0,0,.317-.326,5.236,5.236,0,0,1,3.695-2.558.688.688,0,0,0-.194-1.362,6.542,6.542,0,0,0-4.748,3.341.687.687,0,0,0,.931.9Z" transform="translate(-639.67 -1178.412)" fill="#2c2858"/>
          </g>
          <g id="Group_409" data-name="Group 409" transform="translate(34.378 17.815)">
            <path id="Path_775" data-name="Path 775" d="M696.879,1172.066a.688.688,0,0,0,.177-1.1,4.828,4.828,0,0,0-4.791-1.175.688.688,0,0,0,.445,1.3,3.448,3.448,0,0,1,3.379.852A.688.688,0,0,0,696.879,1172.066Z" transform="translate(-691.8 -1169.578)" fill="#2c2858"/>
          </g>
          <path id="Path_776" data-name="Path 776" d="M688.056,1198.254a18.3,18.3,0,0,0,2.838,2.7.725.725,0,0,1,.239.964c-.773,1.37-3.03,2.5-4.413,3.087a.193.193,0,0,1-.2-.323,9.372,9.372,0,0,0,2.248-2.622.862.862,0,0,0,0-.782c-.286-.566-.856-1.719-1.242-2.675A.325.325,0,0,1,688.056,1198.254Z" transform="translate(-653.758 -1171.331)" fill="#de623c"/>
          <path id="Path_777" data-name="Path 777" d="M590.914,1200.359c2.482,1.931,3.213,5.142,1.633,7.173s-4.873,2.112-7.354.181-3.213-5.142-1.633-7.173S588.432,1198.428,590.914,1200.359Z" transform="translate(-582.726 -1171.886)" fill="#f37a50"/>
          <g id="Group_410" data-name="Group 410" transform="translate(3.156 29.653)">
            <path id="Path_778" data-name="Path 778" d="M596.36,1212.54a.677.677,0,0,0,.242-.2,3.109,3.109,0,0,0,.24-3.811,3.313,3.313,0,0,0-3.629-1.246.688.688,0,0,0,.431,1.306,1.962,1.962,0,0,1,2.081.742,1.761,1.761,0,0,1-.222,2.183.687.687,0,0,0,.857,1.028Z" transform="translate(-592.74 -1207.136)" fill="#de623c"/>
          </g>
          <path id="Path_779" data-name="Path 779" d="M655.486,1229.463a.548.548,0,0,1,.5-.873,38.877,38.877,0,0,0,10.322,0,.548.548,0,0,1,.5.873,6.84,6.84,0,0,1-11.328,0Z" transform="translate(-632.477 -1192.172)" fill="#fff"/>
        </g>
        <path id="Path_780" data-name="Path 780" d="M588.342,1134.919c12.191-1.632,29.248-14.053,30.647-20.426-2.358-7.656-14.921-11.505-22.015-7.958S583.178,1125.284,588.342,1134.919Z" transform="translate(-486.436 -1099.117)" fill="#2c2858"/>
        <path id="Path_781" data-name="Path 781" d="M949.512,1353.62h0a3.091,3.091,0,0,1-1.979-3.9l18.817-57.643a3.091,3.091,0,0,1,3.9-1.979h0a3.09,3.09,0,0,1,1.979,3.9l-18.817,57.642A3.091,3.091,0,0,1,949.512,1353.62Z" transform="translate(-733.563 -1225.632)" fill="#fff"/>
        <path id="Path_782" data-name="Path 782" d="M980.093,1400.9l3.834-11.745s3.323,6.756,0,13.169-6.486,6.7-6.486,6.7Z" transform="translate(-754.15 -1293.573)" fill="#f37a50"/>
        <path id="Path_783" data-name="Path 783" d="M964.242,1399.157c-.97-2.279-3.252-7.984-.97-7.958s2.655,2.8,2.655,2.8Z" transform="translate(-743.774 -1294.971)" fill="#f37a50"/>
        <g id="Group_419" data-name="Group 419" transform="translate(0 52.32)">
          <g id="Group_414" data-name="Group 414" transform="translate(31.967 6.955)">
            <g id="Group_413" data-name="Group 413">
              <g id="Group_412" data-name="Group 412">
                <path id="Path_784" data-name="Path 784" d="M370.411,1284.54c5.175-5.221,1.78-10.574,1.78-10.574,2.84-.609,17.821,22.085,24.281,36.506,11.268-11.356,31.122-26.693,36.491-27.587,0,0,7.243-1.947,9.845,6.81,2.323,7.816-6.736,13.354-6.736,13.354s-38.754,27.36-44.485,24.928C382.667,1324.193,374.6,1291.629,370.411,1284.54Z" transform="translate(-370.411 -1273.954)" fill="#f37a50"/>
              </g>
            </g>
          </g>
          <g id="Group_418" data-name="Group 418">
            <g id="Group_417" data-name="Group 417">
              <g id="Group_416" data-name="Group 416">
                <g id="Group_415" data-name="Group 415">
                  <path id="Path_785" data-name="Path 785" d="M292.863,1268.783c3.162.193,7.073-1.37,8.291,1.465l6.242-3.043.378-3.764c-5.363-8.593-18.436-11.031-19.73-11.145-3.363-.3-4.924-.642-5.187-.193s-1.086,3.443,3.793,4.029c6.123.735,2.058,5.631-10.364.971-3.11-1.166-8.964.348-6.847,2.621C271.771,1262.229,278.474,1267.905,292.863,1268.783Z" transform="translate(-268.987 -1251.888)" fill="#f37a50"/>
                </g>
              </g>
            </g>
          </g>
        </g>
      </g>
    </g>
    <g id="Group_535" data-name="Group 535" transform="translate(0 8)">
      <path id="Path_786" data-name="Path 786" d="M1219.257,750.3a16.379,16.379,0,0,1-.926,5.429c-3.023,8.681-13.117,15.057-25.107,15.057s-22.082-6.376-25.1-15.057a16.385,16.385,0,0,1-.926-5.429Z" transform="translate(-751.203 -495.07)" fill="#1d465a"/>
      <path id="Path_787" data-name="Path 787" d="M1219.257,750.3a16.379,16.379,0,0,1-.926,5.429h-50.212a16.385,16.385,0,0,1-.926-5.429Z" transform="translate(-751.203 -495.07)" fill="#0e6a41"/>
      <path id="Path_788" data-name="Path 788" d="M1084.834,65.936a54.515,54.515,0,0,0-43.166,87.913,68.241,68.241,0,0,1,14.466,41.827v.268h57.244v-.267a68.436,68.436,0,0,1,14.5-41.878,54.515,54.515,0,0,0-43.047-87.864" transform="translate(-642.734 46.961)" fill="rgba(255,255,255,0.33)" stroke="#fff" stroke-width="5"/>
      <g id="Group_422" data-name="Group 422" transform="translate(416.765 152.896)">
        <path id="Path_789" data-name="Path 789" d="M1204.422,342.094a1.394,1.394,0,0,1-1.316-1.852c.064-.185,6.492-18.706,11.163-37.566,8.28-33.429,4.019-38.863,1.8-39.648-6.516-2.307-11.7,1.106-14.909,4.374a27.768,27.768,0,0,0-2.695,3.227,52.861,52.861,0,0,1,3.7,7.876c2.887,7.713,3.654,14.916,2.053,19.27a6.84,6.84,0,0,1-7.4,4.8c-3.334-.251-5.773-2.181-7.053-5.582-1.468-3.9-1.279-9.635.521-15.734a42.01,42.01,0,0,1,4.894-10.749,27.024,27.024,0,0,0-6.564-7.419c-3.587-2.615-6.957-2.729-10.014-.339-6.313,4.935-6.555,19.778-.7,42.924a306.554,306.554,0,0,0,11.206,34.507,1.394,1.394,0,0,1-2.585,1.043,309.683,309.683,0,0,1-11.317-34.841c-6.242-24.66-5.677-40.079,1.678-45.829,4.041-3.158,8.79-3.058,13.373.282a28.877,28.877,0,0,1,6.625,7.254,29.455,29.455,0,0,1,2.285-2.638c5.333-5.439,11.664-7.233,17.829-5.051,3.838,1.359,5.412,6.524,4.813,15.792-.442,6.835-2.072,15.976-4.845,27.169-4.7,18.983-11.168,37.611-11.233,37.8A1.394,1.394,0,0,1,1204.422,342.094Zm-7.65-68.857a39.546,39.546,0,0,0-3.807,8.807c-1.607,5.448-1.826,10.668-.585,13.963.9,2.378,2.418,3.616,4.654,3.784a4.058,4.058,0,0,0,4.571-2.979C1203.451,291.792,1201.209,281.537,1196.772,273.237Z" transform="translate(-1170.918 -258.254)" fill="#fff"/>
      </g>
      <path id="Rectangle_331" data-name="Rectangle 331" d="M10.487,0H57.643A10.487,10.487,0,0,1,68.131,10.487v0A10.487,10.487,0,0,1,57.643,20.975H10.488A10.488,10.488,0,0,1,0,10.487v0A10.487,10.487,0,0,1,10.487,0Z" transform="translate(407.956 236.04)" fill="#1d465a"/>
      <path id="Path_790" data-name="Path 790" d="M1652.281,303.842h-17.825a4.594,4.594,0,0,1-4.594-4.594h0a4.594,4.594,0,0,1,4.594-4.594h17.825a4.593,4.593,0,0,1,4.593,4.594h0A4.594,4.594,0,0,1,1652.281,303.842Z" transform="translate(-1117.646 -134.188)" fill="#fcfcfc"/>
      <path id="Path_791" data-name="Path 791" d="M847.39,303.842H829.566a4.594,4.594,0,0,1-4.594-4.594h0a4.594,4.594,0,0,1,4.594-4.594H847.39a4.594,4.594,0,0,1,4.594,4.594h0A4.594,4.594,0,0,1,847.39,303.842Z" transform="translate(-480.158 -134.188)" fill="#fcfcfc"/>
      <path id="Path_792" data-name="Path 792" d="M924.589,70.447l14.185,10.794a4.594,4.594,0,0,1,.874,6.438h0a4.594,4.594,0,0,1-6.437.874L919.025,77.758" transform="translate(-554.65 43.388)" fill="#fcfcfc"/>
      <path id="Path_793" data-name="Path 793" d="M1573.649,70.447l-14.185,10.794a4.594,4.594,0,0,0-.874,6.438h0a4.594,4.594,0,0,0,6.437.874l14.185-10.794" transform="translate(-1060.455 43.388)" fill="#fcfcfc"/>
      <path id="Path_794" data-name="Path 794" d="M926.308,499.8l-14.185,10.794a4.594,4.594,0,0,0-.874,6.438h0a4.594,4.594,0,0,0,6.437.874l14.185-10.794a4.594,4.594,0,0,0,.874-6.437h0A4.594,4.594,0,0,0,926.308,499.8Z" transform="translate(-547.749 -295.924)" fill="#fcfcfc"/>
      <path id="Path_795" data-name="Path 795" d="M1565.027,499.8l14.185,10.794a4.594,4.594,0,0,1,.874,6.438h0a4.594,4.594,0,0,1-6.438.874l-14.185-10.794a4.593,4.593,0,0,1-.874-6.437h0A4.593,4.593,0,0,1,1565.027,499.8Z" transform="translate(-1060.455 -295.924)" fill="#fcfcfc"/>
    </g>
    <g id="Group_423" data-name="Group 423" transform="translate(444.973 433.363)">
      <path id="Vector_25" data-name="Vector 25" d="M1326.108,1287.439a101.969,101.969,0,0,1-8.7-24.152c-2.16-10.622-2.058-23.308-1.794-30.085a1.559,1.559,0,0,1,2.889-.751c3.91,6.393,10.979,19.238,12.567,30.844a240.531,240.531,0,0,1,2.2,24.152Z" transform="translate(-1311.143 -1231.702)" fill="#3f964f"/>
      <path id="Vector_26" data-name="Vector 26" d="M1369.816,1314s4.142-14.329,8.7-23.887c3.312-6.949,10.849-15.269,14.718-19.294a1.063,1.063,0,0,1,1.813.932c-.993,5.3-3.29,15.743-7.043,22.876-5.218,9.914-13.911,19.373-13.911,19.373Z" transform="translate(-1348.354 -1258.263)" fill="#3f964f"/>
      <path id="Vector_27" data-name="Vector 27" d="M1301.884,1363.617a1.449,1.449,0,0,1,1.753-2.035,24.81,24.81,0,0,1,8.523,4.939,17.692,17.692,0,0,1,5.495,9.009l-1.593.537S1307.429,1374.494,1301.884,1363.617Z" transform="translate(-1301.72 -1320.591)" fill="#0e6a41"/>
      <path id="Vector_28" data-name="Vector 28" d="M1374.208,1258.7a1.59,1.59,0,0,0-2.876-.814c-3.235,4.5-8.663,13.369-10.438,24.239-2.224,13.566.364,22.8.364,22.8h1.83s6.742-12.776,9.372-21.431C1374.942,1275.328,1374.623,1264.48,1374.208,1258.7Z" transform="translate(-1341.626 -1249.182)" fill="#0e6a41"/>
      <path id="Vector_29" data-name="Vector 29" d="M1383.377,1369.66s3.878-12.917,17.146-17.835a.951.951,0,0,1,1.2,1.252c-1.749,4.269-6.735,14.462-15.156,16.577Z" transform="translate(-1357.64 -1313.923)" fill="#0e6a41"/>
      <path id="Vector_23" data-name="Vector 23" d="M1353.911,1401.6H1323.2l3.942,31.465h22.827Z" transform="translate(-1316.43 -1348.055)" fill="#768fdb"/>
    </g>
    <g id="Group_426" data-name="Group 426" transform="translate(390.058 486.644)">
      <g id="Group_424" data-name="Group 424" transform="translate(6.943 22.714)">
        <path id="Path_796" data-name="Path 796" d="M1201.949,1474.979v4.516h1.23a1.08,1.08,0,0,1,1.08,1.08v.182a1.08,1.08,0,0,1-1.08,1.08h-52.4a1.258,1.258,0,0,1-1.258-1.257v-6.5a1.258,1.258,0,0,1,1.258-1.258h52.4a1.08,1.08,0,0,1,1.08,1.08h0a1.08,1.08,0,0,1-1.08,1.08Z" transform="translate(-1149.518 -1472.818)" fill="#e62552"/>
        <path id="Rectangle_332" data-name="Rectangle 332" d="M2.258,0H46.751a0,0,0,0,1,0,0V4.515a0,0,0,0,1,0,0H2.258A2.258,2.258,0,0,1,0,2.258v0A2.258,2.258,0,0,1,2.258,0Z" transform="translate(5.836 2.161)" fill="#fff"/>
      </g>
      <g id="Group_425" data-name="Group 425" transform="translate(0 12.733)">
        <path id="Path_797" data-name="Path 797" d="M1129.8,1443.543v5h-1.23a1.142,1.142,0,0,0-1.08,1.2v.2a1.142,1.142,0,0,0,1.08,1.2h52.4a1.33,1.33,0,0,0,1.258-1.391v-7.2a1.33,1.33,0,0,0-1.258-1.391h-52.4a1.142,1.142,0,0,0-1.08,1.2h0a1.142,1.142,0,0,0,1.08,1.2Z" transform="translate(-1127.488 -1441.152)" fill="#3f964f"/>
        <path id="Rectangle_333" data-name="Rectangle 333" d="M2.5,0H46.751a0,0,0,0,1,0,0V5a0,0,0,0,1,0,0H2.5A2.5,2.5,0,0,1,0,2.5v0A2.5,2.5,0,0,1,2.5,0Z" transform="translate(48.905 7.388) rotate(180)" fill="#fff"/>
      </g>
      <rect id="Rectangle_334" data-name="Rectangle 334" width="51.608" height="8.103" rx="4.051" transform="translate(4.271)" fill="#e62552"/>
      <path id="Rectangle_335" data-name="Rectangle 335" d="M2.315,0H49.293a2.315,2.315,0,0,1,2.315,2.315v0A2.315,2.315,0,0,1,49.293,4.63H2.315A2.315,2.315,0,0,1,0,2.315v0A2.315,2.315,0,0,1,2.315,0Z" transform="translate(7.643 8.103)" fill="#768fdb"/>
    </g>
  </g>
</svg>
